<svg xmlns="http://www.w3.org/2000/svg" id="house" viewBox="0 0 64 64">
  <polygon points="55 62 9 62 9 26 32 11 55 26 55 62" style="stroke-width:0;fill:#d89256"></polygon>
  <path d="M34,34h11c1.1,0,2,.9,2,2v26h-15v-26c0-1.1.9-2,2-2Z" style="stroke-width:0;fill:#663510"></path>
  <rect width="10" height="20" x="41" y="6" style="stroke-width:0;fill:#d89256"></rect>
  <rect width="14" height="6" x="39" y="2" rx="1" ry="1" style="stroke-width:0;fill:#d9b992"></rect>
  <path d="M59.6,26.2L32.6,6.2c-.36-.26-.84-.26-1.19,0L4.4,26.2c-.21.16-.36.4-.39.66-.04.26.03.53.19.74l3,4c.33.43.93.53,1.38.22l23.42-16.59,23.42,16.59c.18.12.38.18.58.18.3,0,.6-.14.8-.4l3-4c.16-.21.23-.48.19-.74-.04-.26-.18-.5-.39-.66Z" style="stroke-width:0;fill:#d9b992"></path>
  <rect width="12" height="10" x="50" y="52" rx="1" ry="1" style="fill:#5f8c4b;stroke-width:0"></rect>
  <rect width="27" height="10" x="2" y="52" rx="1" ry="1" style="fill:#5f8c4b;stroke-width:0"></rect>
  <path d="M36,48c-.55,0-1,.45-1,1v2c0,.55.45,1,1,1s1-.45,1-1v-2c0-.55-.45-1-1-1Z" style="stroke-width:0;fill:#fff"></path>
  <rect width="14" height="14" x="14" y="35" rx="2" ry="2" style="stroke-width:0;fill:#fff"></rect>
  <path d="M26,34h-10c-1.65,0-3,1.35-3,3v10c0,1.65,1.35,3,3,3h10c1.65,0,3-1.35,3-3v-10c0-1.65-1.35-3-3-3ZM27,37v4h-5v-5h4c.55,0,1,.45,1,1ZM16,36h4v5h-5v-4c0-.55.45-1,1-1ZM15,47v-4h5v5h-4c-.55,0-1-.45-1-1ZM26,48h-4v-5h5v4c0,.55-.45,1-1,1Z" style="stroke-width:0;fill:#663510"></path>
</svg>
