<svg xmlns="http://www.w3.org/2000/svg" viewBox="0 0 64 64" id="wheat">
  <path fill="#bd7931" d="M58.23 44.485a6.286 6.286 0 0 0-6.243 5.529l-.711-9.935h1.708a3.292 3.292 0 0 0 .461-.032 5.225 5.225 0 0 0 4.785-5.214V32.525H55.5a2.313 2.313 0 0 0-.263.01 5.222 5.222 0 0 0-4.309 2.7l-.494-6.91h1.5a1.926 1.926 0 0 0 .347-.021 4.18 4.18 0 0 0 3.85-4.176V22.452h-2.56a4.186 4.186 0 0 0-3.424 1.834l-.241-3.372 1.158-1.158a.263.263 0 0 0 .052-.063 4.2 4.2 0 0 0-.052-5.875L49.836 12.59l-1.227 1.228c-.084.084-.158.168-.231.251a4.2 4.2 0 0 0 .231 5.687l1.157 1.158-.241 3.371a4.19 4.19 0 0 0-3.466-1.833H43.541v1.679a4.2 4.2 0 0 0 4.2 4.2h1.5l-.495 6.918a5.222 5.222 0 0 0-4.571-2.721H41.443v2.308a5.248 5.248 0 0 0 5.246 5.246H48.4l-.711 9.935a6.286 6.286 0 0 0-6.242-5.529H38.3v3.777a6.3 6.3 0 0 0 6.3 6.3h2.77l-.514 7.2A2.1 2.1 0 0 0 48.944 64h1.784a2.1 2.1 0 0 0 2.1-2.245l-.514-7.2h2.77a6.3 6.3 0 0 0 6.3-6.3V44.485zM27.8 38.82a8.376 8.376 0 0 0-8.351 7.606l-.683-11.8h2.739a6.4 6.4 0 0 0 .777-.052A6.3 6.3 0 0 0 27.8 28.328V25.18H24.656a6.3 6.3 0 0 0-6.147 4.95l-.59-10.2h2.54a5.247 5.247 0 0 0 5.246-5.245v-2.1H22.557a1.7 1.7 0 0 0-.241.011 5.247 5.247 0 0 0-4.63 3.305l-.317-5.472L18.843 8.96a5.242 5.242 0 0 0 0-7.428L17.311 0 15.78 1.532a5.242 5.242 0 0 0 0 7.428l1.474 1.474-.317 5.482a5.241 5.241 0 0 0-4.871-3.326H8.918v2.1a5.247 5.247 0 0 0 5.246 5.245H16.7l-.59 10.2a6.3 6.3 0 0 0-6.147-4.95H6.82v3.148a6.3 6.3 0 0 0 6.3 6.295h2.739l-.683 11.8A8.376 8.376 0 0 0 6.82 38.82h-4.2v4.2a8.391 8.391 0 0 0 8.393 8.394h3.872l-.6 10.366A2.108 2.108 0 0 0 16.388 64h1.847a2.108 2.108 0 0 0 2.1-2.224l-.6-10.366h3.872a8.767 8.767 0 0 0 .923-.053A8.39 8.39 0 0 0 32 43.016v-4.2z"></path>
  <path fill="#ffc94e" d="M18.843,8.96l-1.532,1.532L15.78,8.96a5.242,5.242,0,0,1,0-7.428L17.311,0l1.532,1.532A5.242,5.242,0,0,1,18.843,8.96Z"></path>
  <path fill="#f29c40" d="M18.812,8.991l-1.5,1.5L15.78,8.96a5.242,5.242,0,0,1,0-7.428l.094-.095A11.107,11.107,0,0,0,18.812,8.991Z"></path>
  <path fill="#ffc94e" d="M25.705,12.59v2.1a5.247,5.247,0,0,1-5.246,5.245H17.311v-2.1a5.248,5.248,0,0,1,5-5.235,1.7,1.7,0,0,1,.241-.011Z"></path>
  <path fill="#f29c40" d="M19.966,19.934H17.311v-2.1a5.248,5.248,0,0,1,5-5.235C20.365,13.9,19.861,16.514,19.966,19.934Z"></path>
  <path fill="#ffc94e" d="M17.311,17.836v2.1H14.164a5.247,5.247,0,0,1-5.246-5.245v-2.1h3.148A5.247,5.247,0,0,1,17.311,17.836Z"></path>
  <path fill="#f29c40" d="M14.657,19.934h2.654v-2.1a5.247,5.247,0,0,0-5-5.235C14.258,13.9,14.762,16.514,14.657,19.934Z"></path>
  <path fill="#ffc94e" d="M27.8,25.18v3.148a6.3,6.3,0,0,1-5.518,6.243,6.4,6.4,0,0,1-.777.052H18.361V31.475a6.3,6.3,0,0,1,6.295-6.3Z"></path>
  <path fill="#f29c40" d="M22.285,34.571a6.4,6.4,0,0,1-.777.052H18.361V31.475a6.3,6.3,0,0,1,6.295-6.3h.073C22.83,27.52,21.97,30.741,22.285,34.571Z"></path>
  <path fill="#ffc94e" d="M16.262 31.475v3.148H13.115A6.3 6.3 0 0 1 6.82 28.328V25.18H9.967A6.3 6.3 0 0 1 16.262 31.475zM15.171 46.426l-.283 4.984H11.016a8.391 8.391 0 0 1-8.393-8.394v-4.2h4.2A8.376 8.376 0 0 1 15.171 46.426z"></path>
  <path fill="#f29c40" d="M12.338,34.571a6.389,6.389,0,0,0,.777.052h3.147V31.475a6.3,6.3,0,0,0-6.295-6.3H9.894C11.793,27.52,12.653,30.741,12.338,34.571Z"></path>
  <path fill="#ffc94e" d="M32,38.82v4.2a8.39,8.39,0,0,1-7.47,8.341,8.767,8.767,0,0,1-.923.053H19.735l-.283-4.984A8.376,8.376,0,0,1,27.8,38.82Z"></path>
  <path fill="#f29c40" d="M24.53 51.357a8.767 8.767 0 0 1-.923.053H19.735l-.283-4.984A8.376 8.376 0 0 1 27.8 38.82 13.673 13.673 0 0 0 24.53 51.357zM10.093 51.357a8.767 8.767 0 0 0 .923.053h3.872l.283-4.984A8.376 8.376 0 0 0 6.82 38.82 13.673 13.673 0 0 1 10.093 51.357z"></path>
  <path fill="#ffc94e" d="M51.116,19.693a.263.263,0,0,1-.052.063l-1.228,1.228-1.227-1.228a4.2,4.2,0,0,1-.231-5.687c.073-.083.147-.167.231-.251l1.227-1.228,1.228,1.228A4.2,4.2,0,0,1,51.116,19.693Z"></path>
  <path fill="#f29c40" d="M51.116,19.693a.263.263,0,0,1-.052.063l-1.228,1.228-1.227-1.228a4.2,4.2,0,0,1-.231-5.687A13.444,13.444,0,0,0,51.116,19.693Z"></path>
  <path fill="#ffc94e" d="M50.256,26.649v1.679H47.738a4.2,4.2,0,0,1-4.2-4.2V22.452h2.518A4.2,4.2,0,0,1,50.256,26.649Z"></path>
  <path fill="#ffc94e" d="M56.131,22.452v1.679a4.18,4.18,0,0,1-3.85,4.176,1.926,1.926,0,0,1-.347.021H49.416V26.649a4.194,4.194,0,0,1,4.155-4.2Z"></path>
  <path fill="#f29c40" d="M52.281,28.307a1.926,1.926,0,0,1-.347.021H49.416V26.649a4.194,4.194,0,0,1,4.155-4.2A7.882,7.882,0,0,0,52.281,28.307Z"></path>
  <path fill="#f29c40" d="M47.391,28.307a1.926,1.926,0,0,0,.347.021h2.518V26.649a4.194,4.194,0,0,0-4.155-4.2A7.882,7.882,0,0,1,47.391,28.307Z"></path>
  <path fill="#ffc94e" d="M58.23,32.525v2.308a5.225,5.225,0,0,1-4.785,5.214,3.292,3.292,0,0,1-.461.032H50.256V37.77a5.237,5.237,0,0,1,4.983-5.235,2.313,2.313,0,0,1,.263-.01Z"></path>
  <path fill="#f29c40" d="M53.445,40.047a3.292,3.292,0,0,1-.461.032H50.256V37.77a5.237,5.237,0,0,1,4.983-5.235A13.029,13.029,0,0,0,53.445,40.047Z"></path>
  <path fill="#ffc94e" d="M49.416 37.77v2.309H46.689a5.248 5.248 0 0 1-5.246-5.246V32.525H44.17A5.247 5.247 0 0 1 49.416 37.77zM47.685 50.014l-.325 4.543H44.59a6.3 6.3 0 0 1-6.3-6.3V44.485h3.148A6.286 6.286 0 0 1 47.685 50.014z"></path>
  <path fill="#f29c40" d="M46.227,40.047a3.3,3.3,0,0,0,.462.032h2.727V37.77a5.237,5.237,0,0,0-4.983-5.235A13.029,13.029,0,0,1,46.227,40.047Z"></path>
  <path fill="#ffc94e" d="M61.377,44.485v3.777A6.3,6.3,0,0,1,56.1,54.473a6.4,6.4,0,0,1-1.018.084h-2.77l-.325-4.543a6.277,6.277,0,0,1,5.34-5.455,5.1,5.1,0,0,1,.9-.074Z"></path>
  <path fill="#f29c40" d="M56.1 54.473a6.4 6.4 0 0 1-1.018.084h-2.77l-.325-4.543a6.277 6.277 0 0 1 5.34-5.455C55.239 47.769 55.607 51.955 56.1 54.473zM43.572 54.473a6.4 6.4 0 0 0 1.018.084h2.77l.325-4.543a6.276 6.276 0 0 0-5.34-5.455C44.433 47.769 44.066 51.955 43.572 54.473z"></path>
  <path fill="#ba6530" d="M49.836 19.934V64h-.892a2.1 2.1 0 0 1-2.1-2.245l.514-7.2.325-4.543zM17.311 9.443V64h-.923a2.108 2.108 0 0 1-2.1-2.224l.6-10.366.283-4.984z"></path>
</svg>
